<svg xmlns="http://www.w3.org/2000/svg" xmlns:xlink="http://www.w3.org/1999/xlink" viewBox="0 0 32 32"><defs><style>.cls-1{fill:none;}.cls-2{fill:#C3CF21;}.cls-3{clip-path:url(#clip-path);}.cls-4{fill:#fff;}</style><clipPath id="clip-path"><rect class="cls-1" x="0.8" y="9.8" width="30.3" height="12.4"/></clipPath></defs><g id="Layer_2" data-name="Layer 2"><g id="Layer_1-2" data-name="Layer 1"><rect class="cls-2" width="32" height="32"/><g id="Layer_2-2" data-name="Layer 2"><g id="Layer_1-2-2" data-name="Layer 1-2"><g class="cls-3"><path class="cls-4" d="M18.6,20.8a3.09,3.09,0,0,0-.4-5.3c-1.3-.8-3.9-2.2-1.4-4.4,6.4.2,11.4,2.3,11.4,4.9.1,2.3-4,4.3-9.6,4.8m-5.2-9.6a3.09,3.09,0,0,0,.4,5.3c1.3.8,3.9,2.2,1.4,4.4C8.7,20.7,3.7,18.6,3.7,16c0-2.4,4.1-4.3,9.7-4.8M16,9.9C7.8,9.9,1.1,12.6,1.1,16S7.8,22,16,22s14.9-2.7,14.9-6.1-6.6-6-14.9-6"/></g></g></g></g></g></svg>