<?xml version="1.0" standalone="no"?>
<!DOCTYPE svg PUBLIC "-//W3C//DTD SVG 20010904//EN"
 "http://www.w3.org/TR/2001/REC-SVG-20010904/DTD/svg10.dtd">
<svg version="1.0" xmlns="http://www.w3.org/2000/svg"
 width="700.000000pt" height="700.000000pt" viewBox="0 0 700.000000 700.000000"
 preserveAspectRatio="xMidYMid meet">
<metadata>
Created by potrace 1.11, written by Peter Selinger 2001-2013
</metadata>
<g transform="translate(0.000000,700.000000) scale(0.100000,-0.100000)"
fill="#000000" stroke="none">
<path d="M0 3500 l0 -3500 3500 0 3500 0 0 3500 0 3500 -3500 0 -3500 0 0
-3500z m4200 1306 c517 -48 981 -136 1360 -260 590 -192 991 -461 1136 -763
86 -178 82 -357 -10 -541 -253 -502 -1233 -908 -2466 -1021 -475 -44 -1010
-42 -1495 4 -1091 105 -1979 433 -2319 857 -117 146 -161 261 -160 423 0 93 4
121 26 183 142 395 684 735 1511 946 359 92 758 153 1217 185 202 15 996 6
1200 -13z"/>
<path d="M3596 4490 c-47 -51 -87 -106 -108 -148 -30 -60 -33 -75 -33 -157 0
-82 3 -97 33 -157 60 -123 210 -250 492 -417 117 -69 166 -110 233 -193 114
-143 166 -345 134 -523 -29 -157 -91 -273 -205 -383 l-65 -63 54 6 c574 66
1013 173 1368 333 349 157 568 344 644 551 31 82 29 234 -2 316 -181 467
-1048 819 -2226 905 -252 18 -231 23 -319 -70z"/>
<path d="M2850 4543 c-1084 -116 -1840 -448 -2012 -882 -18 -45 -22 -76 -22
-161 0 -91 3 -113 26 -166 141 -334 633 -613 1364 -773 288 -63 661 -111 979
-127 l140 -7 77 82 c49 51 89 106 110 149 30 60 33 75 33 157 0 82 -3 97 -33
157 -60 122 -216 255 -485 412 -53 32 -119 76 -145 98 -220 191 -295 488 -192
761 31 82 111 197 178 256 59 52 59 52 -18 44z"/>
</g>
</svg>
