<svg id="bcdadd7b-7fa5-436a-a55c-f926919ebf04" xmlns="http://www.w3.org/2000/svg" viewBox="0 0 424 55.63"><path d="M1,16.47H423v40H1Z" transform="translate(0.03 -5.76)" style="fill:#f60;stroke:#f60;stroke-width:2px;fill-rule:evenodd"/><path d="M102.53,21.2l2.1.74a11.28,11.28,0,0,1,4.68,2.57,6.4,6.4,0,0,1,2,5,8.64,8.64,0,0,1-2.25,6.16,10.59,10.59,0,0,1-4.85,2.66v4.61h-4V38.53a12.79,12.79,0,0,1-4.56-1,16.12,16.12,0,0,1-3.91-2.33l2.9-5.44a13,13,0,0,0,2.79,2.09,9.4,9.4,0,0,0,3.67.94,3.61,3.61,0,0,0,2.62-.94,2.47,2.47,0,0,0,.73-1.72,1.94,1.94,0,0,0-.81-1.55,7.64,7.64,0,0,0-1.82-.82L99.44,27A10.68,10.68,0,0,1,95,24.44a6.35,6.35,0,0,1-1.74-4.74,8.34,8.34,0,0,1,2-5.75,8.92,8.92,0,0,1,4.92-2.7V6.76h4v4.49a13.05,13.05,0,0,1,6.1,2.09l-2.67,5.22a7.63,7.63,0,0,0-4.48-1.8,3.58,3.58,0,0,0-2.42.74,1.75,1.75,0,0,0-.61,1.35,1.88,1.88,0,0,0,.56,1.34,6.18,6.18,0,0,0,1.9,1Z" transform="translate(0.03 -5.76)" style="fill:#fff;stroke:#f60;stroke-width:2px;fill-rule:evenodd"/><path d="M402.68,27.54h4.59V39.86h-4.59ZM405,40.94a2.91,2.91,0,0,1,2,.9,2.72,2.72,0,0,1,.8,2,2.77,2.77,0,0,1-.83,2,2.86,2.86,0,0,1-2,.86,2.75,2.75,0,0,1-2-.86,2.86,2.86,0,0,1-.05-4l.08-.13A2.82,2.82,0,0,1,405,40.94Zm-11.82-6.52,1.47.45A7,7,0,0,1,398,36.76a4.45,4.45,0,0,1,1.19,3.33,6.39,6.39,0,0,1-1.75,4.7,7.09,7.09,0,0,1-5.44,1.9,9.76,9.76,0,0,1-3.63-.61,12.9,12.9,0,0,1-2.79-1.49l2-3.92a6.48,6.48,0,0,0,4.24,1.91,2.39,2.39,0,0,0,1.85-.65,1.68,1.68,0,0,0,.47-1.17,1.45,1.45,0,0,0-.53-1.12,6.38,6.38,0,0,0-2.37-1L390,38.21a6.06,6.06,0,0,1-2.65-1.51,4.73,4.73,0,0,1-1.06-3.31A6.14,6.14,0,0,1,388,28.94a6.43,6.43,0,0,1,4.73-1.77,12.91,12.91,0,0,1,5.7,1.51l-1.91,3.78a4.9,4.9,0,0,0-3.15-1.26,2.29,2.29,0,0,0-1.58.56,1.38,1.38,0,0,0-.47,1,1.27,1.27,0,0,0,.25.84,3,3,0,0,0,1.61.8Zm-19.34,1.23h9.52c0,3.7-.75,6.33-3,8.4a9,9,0,0,1-6.5,2.35,9.29,9.29,0,0,1-9.73-8.83h0v-.69A10,10,0,0,1,379,28.4a9,9,0,0,1,3.29,3.84l-4.56,1.9a4.56,4.56,0,0,0-1.33-1.88,3.85,3.85,0,0,0-2.57-.92,4.46,4.46,0,0,0-3.16,1.29,6.42,6.42,0,0,0-1.6,4.28,5.88,5.88,0,0,0,1.47,4A4.35,4.35,0,0,0,374,42.34a3.9,3.9,0,0,0,2.66-.87,3.3,3.3,0,0,0,1.13-2.07h-3.93Zm-26.34-.84V46.23h-4.78V27.54h4.78l8.83,11.4V27.54h4.78V46.21H356.3Zm-13.42-7.25h4.79V46.23h-4.79ZM320.52,46.23l-7.74-18.67H318l4.43,11.38,4.48-11.37h5.2l-7.85,18.67Zm-11.68,0-1.13-3.13H301l-1.24,3.13h-5.06l7.08-18.67H307l7,18.65Zm-4.48-12.87-2,6h4.1Zm-16.93,1.06,1.46.45a7,7,0,0,1,3.35,1.89,4.45,4.45,0,0,1,1.19,3.33,6.44,6.44,0,0,1-1.74,4.7,7.16,7.16,0,0,1-5.45,1.9,9.76,9.76,0,0,1-3.63-.61,12.9,12.9,0,0,1-2.79-1.49l2-3.92a6.44,6.44,0,0,0,4.23,1.91,2.38,2.38,0,0,0,1.85-.65,1.68,1.68,0,0,0,.47-1.17,1.47,1.47,0,0,0-.52-1.12,6.5,6.5,0,0,0-2.38-1l-1.25-.39a6.06,6.06,0,0,1-2.65-1.51,4.76,4.76,0,0,1-1-3.31,6.14,6.14,0,0,1,1.68-4.5A6.43,6.43,0,0,1,287,27.12a12.91,12.91,0,0,1,5.7,1.51l-1.91,3.78a4.83,4.83,0,0,0-3.15-1.26,2.29,2.29,0,0,0-1.58.56,1.47,1.47,0,0,0-.47,1,1.27,1.27,0,0,0,.25.84,3,3,0,0,0,1.61.85Zm-30.72.39V46.23H252V27.54h4.78l8.83,11.4V27.54h4.78V46.21h-4.78Zm-13.44-7.25h4.78V46.23h-4.78ZM81.5,46.21l-4.59-7.16v7.16H72.13V27.54H79.6a5.91,5.91,0,0,1,4.5,1.65,6.14,6.14,0,0,1,1.58,4.2,5.39,5.39,0,0,1-1.46,3.89,5.17,5.17,0,0,1-2.55,1.29l5.78,7.64ZM80.12,32a3.22,3.22,0,0,0-2.29-.73h-.92v4.65h.92a3.59,3.59,0,0,0,2.32-.75,2.34,2.34,0,0,0,.61-1.57A2.21,2.21,0,0,0,80.12,32ZM58.6,27.54H69.08v4.12h-5.7v3.1h5.4v4.12h-5.4V42.1h5.7v4.11H58.6ZM45.06,46.21,37.32,27.54h5.23L47,38.94l4.48-11.37h5.2L48.83,46.24Zm-18.34.42a10.44,10.44,0,0,1-7.28-2.77,9.87,9.87,0,0,1-.06-13.94l.06-.06A10.94,10.94,0,0,1,34,29.94a9.84,9.84,0,0,1,.08,13.92h0l-.08.08A10.47,10.47,0,0,1,26.72,46.63Zm3.7-13.32a5.47,5.47,0,0,0-3.7-1.49A5.28,5.28,0,0,0,23,33.31,5.17,5.17,0,0,0,21.51,37,4.78,4.78,0,0,0,23,40.45a5.27,5.27,0,0,0,3.74,1.48,5,5,0,0,0,3.7-1.46A5.15,5.15,0,0,0,32,36.89,5,5,0,0,0,30.42,33.31Z" transform="translate(0.03 -5.76)" style="fill:#fff;fill-rule:evenodd"/><g style="isolation:isolate"><path d="M126.7,43.38a7.3,7.3,0,0,0,1.87,4.69,6.33,6.33,0,0,0,4.71,1.82,6.11,6.11,0,0,0,4.71-2A5.51,5.51,0,0,0,139.38,44a5.37,5.37,0,0,0-1.8-4.13,7.22,7.22,0,0,0-4.44-1.33,6.11,6.11,0,0,0-2,.28V30.64a5.83,5.83,0,0,0,4.92-1.19,4.4,4.4,0,0,0,1.53-3.29,5.23,5.23,0,0,0-1.25-3.36,4.93,4.93,0,0,0-3.39-1.26,4.67,4.67,0,0,0-3.33,1.19,5.92,5.92,0,0,0-1.6,4.13H116.86a16.63,16.63,0,0,1,4.5-10.71c3.4-3.57,7.76-4.56,12.2-4.56,3.46,0,8,.71,11.5,4.14a12.75,12.75,0,0,1,3.75,9,11.33,11.33,0,0,1-1.39,5.74,8,8,0,0,1-3.53,3.57,11.32,11.32,0,0,1,5.47,4.27,11.86,11.86,0,0,1,1.94,6.86,14.13,14.13,0,0,1-4.09,10.22c-2.49,2.52-6.93,5-13.79,5a18.13,18.13,0,0,1-19-17Z" transform="translate(0.03 -5.76)" style="fill:#fff"/><path d="M187.61,55.07a17.94,17.94,0,0,1-25.5,0c-4.16-4.13-6.86-10.85-6.86-19s2.7-15,6.86-19.11a17.91,17.91,0,0,1,25.5,0c4.16,4.13,6.86,10.85,6.86,19.11S191.77,50.94,187.61,55.07ZM171.19,23.92c-2.5,2.17-4,7.84-4,12.18,0,3.71,1.31,9.8,4,12.18a5.32,5.32,0,0,0,7.34,0c2.57-2.24,4-8.12,4-12.11s-1.59-10.08-4-12.25a5.32,5.32,0,0,0-7.34,0Z" transform="translate(0.03 -5.76)" style="fill:#fff"/><path d="M229.19,55.07a17.94,17.94,0,0,1-25.5,0c-4.16-4.13-6.86-10.85-6.86-19s2.7-15,6.86-19.11a17.91,17.91,0,0,1,25.5,0c4.16,4.13,6.86,10.85,6.86,19.11S233.35,50.94,229.19,55.07ZM212.77,23.92c-2.5,2.17-4,7.84-4,12.18,0,3.71,1.31,9.8,4,12.18a5.32,5.32,0,0,0,7.34,0c2.57-2.24,4-8.12,4-12.11s-1.59-10.08-4-12.25a5.32,5.32,0,0,0-7.34,0Z" transform="translate(0.03 -5.76)" style="fill:#fff"/></g><g style="isolation:isolate"><path d="M126.7,43.38a7.3,7.3,0,0,0,1.87,4.69,6.33,6.33,0,0,0,4.71,1.82,6.11,6.11,0,0,0,4.71-2A5.51,5.51,0,0,0,139.38,44a5.37,5.37,0,0,0-1.8-4.13,7.22,7.22,0,0,0-4.44-1.33,6.11,6.11,0,0,0-2,.28V30.64a5.83,5.83,0,0,0,4.92-1.19,4.4,4.4,0,0,0,1.53-3.29,5.23,5.23,0,0,0-1.25-3.36,4.93,4.93,0,0,0-3.39-1.26,4.67,4.67,0,0,0-3.33,1.19,5.92,5.92,0,0,0-1.6,4.13H116.86a16.63,16.63,0,0,1,4.5-10.71c3.4-3.57,7.76-4.56,12.2-4.56,3.46,0,8,.71,11.5,4.14a12.75,12.75,0,0,1,3.75,9,11.33,11.33,0,0,1-1.39,5.74,8,8,0,0,1-3.53,3.57,11.32,11.32,0,0,1,5.47,4.27,11.86,11.86,0,0,1,1.94,6.86,14.13,14.13,0,0,1-4.09,10.22c-2.49,2.52-6.93,5-13.79,5a18.13,18.13,0,0,1-19-17Z" transform="translate(0.03 -5.76)" style="fill:#fff"/><path d="M187.61,55.07a17.94,17.94,0,0,1-25.5,0c-4.16-4.13-6.86-10.85-6.86-19s2.7-15,6.86-19.11a17.91,17.91,0,0,1,25.5,0c4.16,4.13,6.86,10.85,6.86,19.11S191.77,50.94,187.61,55.07ZM171.19,23.92c-2.5,2.17-4,7.84-4,12.18,0,3.71,1.31,9.8,4,12.18a5.32,5.32,0,0,0,7.34,0c2.57-2.24,4-8.12,4-12.11s-1.59-10.08-4-12.25a5.32,5.32,0,0,0-7.34,0Z" transform="translate(0.03 -5.76)" style="fill:#fff"/><path d="M229.19,55.07a17.94,17.94,0,0,1-25.5,0c-4.16-4.13-6.86-10.85-6.86-19s2.7-15,6.86-19.11a17.91,17.91,0,0,1,25.5,0c4.16,4.13,6.86,10.85,6.86,19.11S233.35,50.94,229.19,55.07ZM212.77,23.92c-2.5,2.17-4,7.84-4,12.18,0,3.71,1.31,9.8,4,12.18a5.32,5.32,0,0,0,7.34,0c2.57-2.24,4-8.12,4-12.11s-1.59-10.08-4-12.25a5.32,5.32,0,0,0-7.34,0Z" transform="translate(0.03 -5.76)" style="fill:#fff"/></g><g style="isolation:isolate"><path d="M126.7,43.38a7.3,7.3,0,0,0,1.87,4.69,6.33,6.33,0,0,0,4.71,1.82,6.11,6.11,0,0,0,4.71-2A5.51,5.51,0,0,0,139.38,44a5.37,5.37,0,0,0-1.8-4.13,7.22,7.22,0,0,0-4.44-1.33,6.11,6.11,0,0,0-2,.28V30.64a5.83,5.83,0,0,0,4.92-1.19,4.4,4.4,0,0,0,1.53-3.29,5.23,5.23,0,0,0-1.25-3.36,4.93,4.93,0,0,0-3.39-1.26,4.67,4.67,0,0,0-3.33,1.19,5.92,5.92,0,0,0-1.6,4.13H116.86a16.63,16.63,0,0,1,4.5-10.71c3.4-3.57,7.76-4.56,12.2-4.56,3.46,0,8,.71,11.5,4.14a12.75,12.75,0,0,1,3.75,9,11.33,11.33,0,0,1-1.39,5.74,8,8,0,0,1-3.53,3.57,11.32,11.32,0,0,1,5.47,4.27,11.86,11.86,0,0,1,1.94,6.86,14.13,14.13,0,0,1-4.09,10.22c-2.49,2.52-6.93,5-13.79,5a18.13,18.13,0,0,1-19-17Z" transform="translate(0.03 -5.76)" style="fill:none;stroke:#f60;stroke-width:2px"/><path d="M187.61,55.07a17.94,17.94,0,0,1-25.5,0c-4.16-4.13-6.86-10.85-6.86-19s2.7-15,6.86-19.11a17.91,17.91,0,0,1,25.5,0c4.16,4.13,6.86,10.85,6.86,19.11S191.77,50.94,187.61,55.07ZM171.19,23.92c-2.5,2.17-4,7.84-4,12.18,0,3.71,1.31,9.8,4,12.18a5.32,5.32,0,0,0,7.34,0c2.57-2.24,4-8.12,4-12.11s-1.59-10.08-4-12.25a5.32,5.32,0,0,0-7.34,0Z" transform="translate(0.03 -5.76)" style="fill:none;stroke:#f60;stroke-width:2px"/><path d="M229.19,55.07a17.94,17.94,0,0,1-25.5,0c-4.16-4.13-6.86-10.85-6.86-19s2.7-15,6.86-19.11a17.91,17.91,0,0,1,25.5,0c4.16,4.13,6.86,10.85,6.86,19.11S233.35,50.94,229.19,55.07ZM212.77,23.92c-2.5,2.17-4,7.84-4,12.18,0,3.71,1.31,9.8,4,12.18a5.32,5.32,0,0,0,7.34,0c2.57-2.24,4-8.12,4-12.11s-1.59-10.08-4-12.25a5.32,5.32,0,0,0-7.34,0Z" transform="translate(0.03 -5.76)" style="fill:none;stroke:#f60;stroke-width:2px"/></g></svg>