<?xml version="1.0" encoding="utf-8"?>
<!-- Generator: Adobe Illustrator 26.0.1, SVG Export Plug-In . SVG Version: 6.00 Build 0)  -->
<svg version="1.1" id="bcdadd7b-7fa5-436a-a55c-f926919ebf04"
	 xmlns="http://www.w3.org/2000/svg" xmlns:xlink="http://www.w3.org/1999/xlink" x="0px" y="0px" viewBox="0 0 424 55.5"
	 style="enable-background:new 0 0 424 55.5;" xml:space="preserve">
<style type="text/css">
	.st0{fill-rule:evenodd;clip-rule:evenodd;fill:#FF6600;stroke:#FF6600;stroke-width:2;}
	.st1{display:none;fill-rule:evenodd;clip-rule:evenodd;fill:#FFFFFF;stroke:#FF6600;stroke-width:2;}
	.st2{fill-rule:evenodd;clip-rule:evenodd;fill:#FFFFFF;}
	.st3{fill:#FFFFFF;stroke:#FF6600;}
</style>
<path class="st0" d="M1,10.7h422v40H1V10.7z"/>
<path class="st1" d="M227.7,49.2c-6.9,7-18.3,7.1-25.3,0.2c-0.1-0.1-0.1-0.1-0.2-0.2c-4.2-4.1-6.8-10.9-6.8-19s2.7-15,6.8-19.1
	c6.9-7,18.3-7.1,25.3-0.2c0.1,0.1,0.1,0.1,0.2,0.2c4.2,4.1,6.8,10.9,6.8,19.1S231.9,45.1,227.7,49.2z M218.7,18c-2-2-5.3-2-7.3,0
	c-2.5,2.2-4,7.8-4,12.2c0,3.7,1.3,9.8,4,12.2c2,2,5.3,2,7.3,0c2.6-2.2,4-8.1,4-12.1S221.1,20.2,218.7,18L218.7,18z M173.4,54.5
	c-8,0-12.6-3-15.1-5.7c-2.8-2.9-4.3-6.8-4.2-10.9c0-6.4,3.2-12.5,6.9-17.4l10.3-13.7h13.6l-13.1,15.9c2-0.9,4.2-1.4,6.4-1.5
	c3.9,0.1,7.7,1.7,10.4,4.5c2.9,3,4.5,7,4.4,11.1c0.2,4.5-1.6,9-4.8,12.2C183.6,53.6,177.9,54.5,173.4,54.5L173.4,54.5z M178.5,32.5
	c-1.4-1.4-3.3-2.2-5.3-2.2c-1.9,0-3.8,0.7-5.2,2c-1.4,1.2-2.2,3-2.3,4.8c0,2,0.7,3.9,2,5.3c1.4,1.5,3.4,2.4,5.5,2.4
	c2,0,3.9-0.7,5.3-2.2c1.4-1.4,2.2-3.3,2.1-5.3C180.6,35.5,179.9,33.8,178.5,32.5L178.5,32.5z M124.7,41c3.5-3.6,6.7-7.6,9.5-11.8
	c1.5-2.1,2.4-4.7,2.5-7.3c0.1-1.6-0.4-3.2-1.4-4.5c-0.9-0.9-2.1-1.4-3.4-1.4c-1.6,0-3,0.7-4,1.9c-1,1.7-1.6,3.7-1.7,5.7h-12.4
	c0-4.8,1.9-9.4,5.2-12.9c3.1-3.1,7.3-5,13.1-5c6.9,0,10.9,2.7,13,4.8c3,3.1,4.6,7.2,4.5,11.5c0,5.9-2.7,9.9-6.9,13.9l-7.8,7.2H150
	v10.3h-37L124.7,41z M102.6,15.4l2.1,0.7c1.7,0.5,3.3,1.4,4.7,2.6c1.4,1.3,2.1,3.1,2,5c0.1,2.3-0.7,4.5-2.2,6.2
	c-1.4,1.3-3,2.2-4.9,2.7v4.6h-4v-4.4c-1.6-0.1-3.1-0.4-4.6-1c-1.4-0.6-2.7-1.4-3.9-2.3l2.9-5.5c0.8,0.8,1.8,1.5,2.8,2.1
	c1.1,0.6,2.4,0.9,3.7,0.9c1,0,1.9-0.3,2.6-0.9c0.5-0.5,0.7-1.1,0.7-1.7c0-0.6-0.3-1.2-0.8-1.5c-0.6-0.4-1.2-0.6-1.8-0.8l-2.4-0.8
	c-1.7-0.5-3.2-1.3-4.4-2.5c-1.2-1.3-1.8-3-1.7-4.7c-0.1-2.1,0.6-4.2,2-5.8c1.3-1.4,3-2.4,4.9-2.7V1h4v4.5c2.2,0.2,4.3,0.9,6.1,2.1
	l-2.7,5.2c-1.3-1.1-2.9-1.7-4.5-1.8c-0.9-0.1-1.7,0.2-2.4,0.7c-0.4,0.3-0.6,0.8-0.6,1.4c0,0.5,0.2,1,0.6,1.3
	C101.2,14.9,101.9,15.3,102.6,15.4L102.6,15.4z"/>
<path class="st2" d="M402.7,21.8h4.6v12.3h-4.6V21.8z M405,35.2c0.8,0,1.5,0.3,2,0.9c0.5,0.5,0.8,1.3,0.8,2c0,0.8-0.3,1.5-0.8,2
	c-0.5,0.5-1.2,0.9-2,0.9c-0.8,0-1.5-0.3-2-0.9c-1.1-1.1-1.1-2.9,0-4c0,0,0,0,0,0C403.5,35.5,404.3,35.2,405,35.2z M393.2,28.7
	l1.5,0.5c1.3,0.3,2.4,0.9,3.3,1.9c0.8,0.9,1.3,2.1,1.2,3.3c0.1,1.7-0.5,3.4-1.8,4.7c-1.5,1.4-3.4,2.1-5.4,1.9
	c-1.2,0-2.5-0.2-3.6-0.6c-1-0.4-1.9-0.9-2.8-1.5l2-3.9c1.1,1.1,2.6,1.8,4.2,1.9c0.7,0.1,1.4-0.2,1.8-0.6c0.3-0.3,0.5-0.7,0.5-1.2
	c0-0.4-0.2-0.8-0.5-1.1c-0.7-0.5-1.5-0.8-2.4-1l-1.2-0.4c-1-0.3-1.9-0.8-2.7-1.5c-0.8-0.9-1.1-2.1-1.1-3.3c0-1.7,0.6-3.3,1.7-4.5
	c1.3-1.2,3-1.8,4.7-1.8c2,0.1,3.9,0.6,5.7,1.5l-1.9,3.8c-0.9-0.8-2-1.2-3.2-1.3c-0.6,0-1.1,0.2-1.6,0.6c-0.3,0.3-0.5,0.6-0.5,1
	c0,0.3,0.1,0.6,0.2,0.8C392,28.3,392.6,28.5,393.2,28.7L393.2,28.7z M373.9,29.9h9.5c0,3.7-0.8,6.3-3,8.4c-1.8,1.6-4.1,2.5-6.5,2.4
	c-5.1,0.3-9.5-3.7-9.7-8.8c0-0.2,0-0.5,0-0.7c0.1-5.5,4.7-9.9,10.2-9.8c1.6,0,3.3,0.5,4.7,1.3c1.4,0.9,2.6,2.3,3.3,3.8l-4.6,1.9
	c-0.3-0.7-0.7-1.4-1.3-1.9c-0.7-0.6-1.6-0.9-2.6-0.9c-1.2,0-2.3,0.5-3.2,1.3c-1,1.2-1.6,2.7-1.6,4.3c0,1.5,0.5,2.9,1.5,4
	c0.9,1,2.1,1.5,3.4,1.4c1,0,1.9-0.3,2.7-0.9c0.6-0.5,1-1.3,1.1-2.1h-3.9L373.9,29.9z M347.5,29.1v11.4h-4.8V21.8h4.8l8.8,11.4V21.8
	h4.8v18.7h-4.8L347.5,29.1z M334.1,21.8h4.8v18.7h-4.8V21.8z M320.5,40.5l-7.7-18.7h5.2l4.4,11.4l4.5-11.4h5.2l-7.8,18.7L320.5,40.5
	z M308.9,40.5l-1.1-3.1H301l-1.2,3.1h-5.1l7.1-18.7h5.2l7,18.6L308.9,40.5z M304.4,27.6l-2,6h4.1L304.4,27.6z M287.5,28.7l1.5,0.5
	c1.3,0.3,2.4,0.9,3.3,1.9c0.8,0.9,1.3,2.1,1.2,3.3c0.1,1.7-0.5,3.4-1.7,4.7c-1.5,1.4-3.4,2.1-5.5,1.9c-1.2,0-2.5-0.2-3.6-0.6
	c-1-0.4-1.9-0.9-2.8-1.5l2-3.9c1.1,1.1,2.6,1.8,4.2,1.9c0.7,0.1,1.4-0.2,1.8-0.6c0.3-0.3,0.5-0.7,0.5-1.2c0-0.4-0.2-0.8-0.5-1.1
	c-0.7-0.5-1.5-0.8-2.4-1l-1.2-0.4c-1-0.3-1.9-0.8-2.7-1.5c-0.7-0.9-1.1-2.1-1-3.3c-0.1-1.7,0.5-3.3,1.7-4.5c1.3-1.2,3-1.8,4.7-1.8
	c2,0.1,3.9,0.6,5.7,1.5l-1.9,3.8c-0.9-0.8-2-1.2-3.2-1.3c-0.6,0-1.1,0.2-1.6,0.6c-0.3,0.3-0.5,0.6-0.5,1c0,0.3,0.1,0.6,0.2,0.8
	C286.3,28.2,286.8,28.5,287.5,28.7L287.5,28.7z M256.7,29.1v11.4H252V21.8h4.8l8.8,11.4V21.8h4.8v18.7h-4.8L256.7,29.1z M243.3,21.8
	h4.8v18.7h-4.8V21.8z M81.5,40.5l-4.6-7.2v7.2h-4.8V21.8h7.5c1.7-0.1,3.3,0.5,4.5,1.6c1,1.2,1.6,2.7,1.6,4.2
	c0.1,1.4-0.5,2.8-1.5,3.9c-0.7,0.7-1.6,1.1-2.5,1.3l5.8,7.6H81.5z M80.1,26.3c-0.6-0.5-1.5-0.8-2.3-0.7h-0.9v4.6h0.9
	c0.8,0,1.7-0.2,2.3-0.8c0.4-0.4,0.6-1,0.6-1.6C80.8,27.3,80.6,26.7,80.1,26.3L80.1,26.3z M58.6,21.8h10.5v4.1h-5.7V29h5.4v4.1h-5.4
	v3.2h5.7v4.1H58.6V21.8z M45.1,40.5l-7.7-18.7h5.2L47,33.2l4.5-11.4h5.2l-7.9,18.7L45.1,40.5z M26.8,40.9c-2.7,0-5.3-0.9-7.3-2.8
	c-3.9-3.8-3.9-10.1-0.1-13.9c0,0,0,0,0.1-0.1c4.2-3.7,10.4-3.6,14.6,0.1c3.9,3.8,3.9,10,0.1,13.9c0,0-0.1,0.1-0.1,0.1
	C32,40,29.4,40.9,26.8,40.9z M30.5,27.5c-1-0.9-2.3-1.5-3.7-1.5c-1.4,0-2.7,0.5-3.7,1.5c-1,1-1.5,2.3-1.5,3.7c0,1.3,0.5,2.6,1.5,3.5
	c1,1,2.3,1.5,3.7,1.5c1.4,0,2.7-0.5,3.7-1.5c0.9-1,1.5-2.2,1.5-3.6C31.9,29.8,31.4,28.5,30.5,27.5z"/>
<g>
	<path class="st3" d="M104.6,1.4v4.5c1.3,0.1,3.4,0.4,6.1,2.1l-2.7,5.2c-0.9-0.7-2.5-1.8-4.5-1.8c-0.9,0-1.9,0.2-2.4,0.7
		c-0.3,0.3-0.6,0.7-0.6,1.3c0,0.4,0.2,0.9,0.6,1.3c0.4,0.4,1.2,0.8,1.9,1l2.1,0.7c1.5,0.5,3.1,1.1,4.7,2.6c1.6,1.6,2,3.1,2,5
		c0,3.3-1.4,5.2-2.3,6.2c-1.2,1.2-3.1,2.2-4.8,2.7v4.6h-4v-4.4c-1.6,0-3.1-0.4-4.6-1c-1.2-0.5-2.5-1.2-3.9-2.3l2.9-5.5
		c0.8,0.8,1.9,1.6,2.8,2.1c1,0.5,2.5,0.9,3.7,0.9c1.1,0,2-0.3,2.6-0.9c0.4-0.4,0.7-1.1,0.7-1.7c0-0.6-0.3-1.1-0.8-1.6
		c-0.4-0.3-1-0.5-1.8-0.8l-2.4-0.8c-2.6-0.9-3.8-1.9-4.4-2.5c-1.3-1.4-1.7-2.9-1.7-4.7c0-2.6,0.8-4.4,2-5.8c1.2-1.3,3-2.3,4.9-2.7
		V1.4H104.6z"/>
	<path class="st3" d="M150.4,53.9h-37l11.7-12.4c4.2-4.4,7.3-8.3,9.5-11.8c1.2-2,2.5-4.3,2.5-7.3c0-0.5,0-2.9-1.4-4.5
		c-0.7-0.8-1.9-1.4-3.4-1.4c-1.9,0-3.3,0.9-4,1.9c-1.1,1.5-1.6,4.1-1.7,5.7h-12.4c0.1-6.1,2.7-10.5,5.1-13c3.1-3.2,7.3-5,13.1-5
		c6.9,0,10.9,2.7,13,4.8c1.9,1.9,4.5,5.5,4.5,11.5c0,5.9-2.7,9.9-6.8,13.9l-7.7,7.3h15.1V53.9z"/>
	<path class="st3" d="M187.2,35.8h5.6v9.3h-5.6v8.8h-11.1v-8.8h-22.3v-7.8l17.8-30.1h15.6V35.8z M176.2,35.8v-19l-10.9,19H176.2z"/>
	<path class="st3" d="M228.1,49.6c-3.6,3.6-8.2,5.3-12.7,5.3c-4.5,0-9.1-1.8-12.7-5.3c-4.2-4.1-6.8-10.9-6.8-19
		c0-8.3,2.7-15,6.8-19.1c3.6-3.6,8.2-5.3,12.7-5.3c4.5,0,9.1,1.8,12.7,5.3c4.2,4.1,6.8,10.9,6.8,19.1
		C234.9,38.8,232.2,45.5,228.1,49.6z M211.7,18.5c-2.5,2.2-4,7.8-4,12.2c0,3.7,1.3,9.8,4,12.2c0.9,0.8,2.3,1.5,3.7,1.5
		s2.8-0.6,3.7-1.5c2.6-2.2,4-8.1,4-12.1c0-4.1-1.6-10.1-4-12.3c-0.9-0.8-2.3-1.5-3.7-1.5S212.6,17.6,211.7,18.5z"/>
</g>
</svg>
