<?xml version="1.0" encoding="utf-8"?>
<!-- Generator: Adobe Illustrator 24.0.2, SVG Export Plug-In . SVG Version: 6.00 Build 0)  -->
<svg version="1.1" id="Layer_1" xmlns="http://www.w3.org/2000/svg" xmlns:xlink="http://www.w3.org/1999/xlink" x="0px" y="0px"
	 viewBox="0 0 430 62" style="enable-background:new 0 0 430 62;" xml:space="preserve">
<style type="text/css">
	.st0{fill:#FF6600;}
	.st1{fill:#FFFFFF;stroke:#FF6600;stroke-miterlimit:10;}
	.st2{fill:#FFFFFF;}
</style>
<g id="Background_xA0_Image_1_">
	
		<image style="overflow:visible;enable-background:new    ;" width="430" height="62" id="Background_xA0_Image" xlink:href="595A7C5D.jpg" >
	</image>
</g>
<g id="Blue_1_">
	<g id="Rectangle_1134_xA0_Image_1_">
		<rect x="4" y="14" class="st0" width="422" height="40"/>
	</g>
	<g>
		<path class="st1" d="M109.9,4.3v4.5c1.3,0.1,3.4,0.4,6.1,2.1l-2.7,5.2c-0.9-0.7-2.5-1.8-4.5-1.8c-0.9,0-1.9,0.2-2.4,0.7
			c-0.3,0.3-0.6,0.7-0.6,1.3c0,0.4,0.2,0.9,0.6,1.3c0.4,0.4,1.3,0.8,1.9,1l2.1,0.7c1.5,0.5,3.1,1.1,4.7,2.6c1.6,1.6,2,3.1,2,5
			c0,3.3-1.4,5.2-2.3,6.2c-1.2,1.2-3.1,2.2-4.8,2.7v4.6h-4v-4.4c-1.6,0-3.1-0.4-4.6-1c-1.2-0.5-2.5-1.2-3.9-2.3l2.9-5.5
			c0.8,0.8,1.9,1.6,2.8,2.1c1,0.5,2.5,0.9,3.7,0.9c1.1,0,2-0.3,2.6-0.9c0.4-0.4,0.7-1.1,0.7-1.7c0-0.6-0.3-1.1-0.8-1.6
			c-0.4-0.3-1-0.5-1.8-0.8l-2.4-0.8c-2.6-0.9-3.8-1.9-4.4-2.5c-1.3-1.4-1.7-2.9-1.7-4.7c0-2.6,0.8-4.4,2-5.8c1.2-1.3,3-2.3,4.9-2.7
			V4.3H109.9z"/>
		<path class="st1" d="M133,20.4h-6.6V10.1H145v46.7h-12V20.4z"/>
		<path class="st1" d="M185.6,38.6h5.6v9.3h-5.6v8.8h-11.1v-8.8h-22.3v-7.8L170,10.1h15.6V38.6z M174.5,38.6v-19l-10.9,19H174.5z"/>
		<path class="st1" d="M228.8,38.6h5.6v9.3h-5.6v8.8h-11.1v-8.8h-22.3v-7.8l17.8-30.1h15.6V38.6z M217.8,38.6v-19l-10.9,19H217.8z"
			/>
	</g>
	<g id="over______________________in_savings_x21__1_">
		<g id="over______________________in_savings_x21_">
			<path class="st2" d="M37,41.4c-1.9,1.8-4.5,2.8-7.3,2.8s-5.4-1-7.3-2.8c-2-1.9-2.9-4.5-2.9-7s0.9-5.1,2.9-7
				c1.9-1.8,4.5-2.8,7.3-2.8s5.4,1,7.3,2.8c2,1.9,2.9,4.5,2.9,7S39,39.5,37,41.4z M26,30.8c-1,1-1.5,2.4-1.5,3.7
				c0,1.7,0.8,2.8,1.5,3.5c0.9,0.9,2.1,1.5,3.7,1.5s2.8-0.6,3.7-1.5s1.5-2.2,1.5-3.6c0-1.5-0.6-2.7-1.5-3.6c-1-1-2.4-1.5-3.7-1.5
				C28.4,29.3,27,29.8,26,30.8z"/>
			<path class="st2" d="M45.6,25.1L50,36.4L54.5,25h5.2l-7.9,18.7h-3.7L40.4,25L45.6,25.1L45.6,25.1z"/>
			<path class="st2" d="M72.1,29.2h-5.7v3.1h5.4v4.1h-5.4v3.2h5.7v4.1H61.6V25.1h10.5V29.2z"/>
			<path class="st2" d="M82.6,25.1c1.4,0,3.2,0.2,4.5,1.7c1.1,1.1,1.6,2.7,1.6,4.2c0,1.6-0.6,3-1.5,3.9c-0.7,0.7-1.7,1.1-2.5,1.3
				l5.8,7.6h-5.9L80,36.6v7.2h-4.8V25.1H82.6z M79.9,33.4h0.9c0.7,0,1.7-0.2,2.3-0.8c0.4-0.4,0.6-1,0.6-1.6s-0.2-1.2-0.6-1.6
				s-1.2-0.7-2.3-0.7h-0.9V33.4z"/>
			<path class="st2" d="M251.1,25.1v18.7h-4.8V25.1H251.1z"/>
			<path class="st2" d="M255,43.7V25.1h4.8l8.8,11.4V25.1h4.8v18.7h-4.8l-8.8-11.4v11.4H255V43.7z"/>
			<path class="st2" d="M284.9,38.1c1,1,2.6,1.9,4.2,1.9c1,0,1.5-0.3,1.9-0.6c0.3-0.3,0.5-0.7,0.5-1.2c0-0.4-0.1-0.8-0.5-1.1
				c-0.5-0.4-1.2-0.6-2.4-1l-1.2-0.4c-0.8-0.3-1.9-0.7-2.7-1.5c-0.9-1-1.1-2.4-1.1-3.3c0-2.3,0.9-3.7,1.7-4.5c0.9-1,2.5-1.8,4.7-1.8
				c1.8,0,4,0.6,5.7,1.5l-1.9,3.8c-1.4-1.1-2.5-1.3-3.2-1.3c-0.5,0-1.1,0.1-1.6,0.6c-0.3,0.3-0.5,0.6-0.5,1c0,0.3,0.1,0.6,0.2,0.8
				c0.1,0.2,0.5,0.5,1.6,0.8l1.5,0.4c1.2,0.4,2.4,0.8,3.3,1.8s1.2,2,1.2,3.3c0,1.7-0.4,3.4-1.7,4.7c-1.6,1.6-3.5,1.9-5.5,1.9
				c-1.2,0-2.3-0.1-3.6-0.6c-0.3-0.1-1.5-0.6-2.8-1.5L284.9,38.1z"/>
			<path class="st2" d="M310.7,40.6H304l-1.2,3.1h-5.1l7.1-18.7h5.2l6.9,18.7h-5.1L310.7,40.6z M309.5,36.9l-2.1-6l-2,6H309.5z"/>
			<path class="st2" d="M321,25.1l4.4,11.4l4.5-11.4h5.2l-7.9,18.7h-3.7l-7.7-18.7C315.8,25.1,321,25.1,321,25.1z"/>
			<path class="st2" d="M341.9,25.1v18.7h-4.8V25.1H341.9z"/>
			<path class="st2" d="M345.8,43.7V25.1h4.8l8.8,11.4V25.1h4.8v18.7h-4.8l-8.8-11.4v11.4h-4.8V43.7z"/>
			<path class="st2" d="M376.9,33.2h9.5c0,3.7-0.7,6.3-3,8.4c-1.9,1.8-4.1,2.4-6.5,2.4c-3.3,0-5.6-1.2-7.1-2.8
				c-1.4-1.4-2.7-3.7-2.7-6.7s1.2-5.4,2.8-7c1.5-1.5,3.9-2.7,7.2-2.7c1.7,0,3.6,0.4,5,1.3s2.6,2.4,3.3,3.8l-4.6,1.9
				c-0.3-0.9-0.9-1.5-1.3-1.9c-0.8-0.7-1.7-0.9-2.6-0.9c-1.1,0-2.3,0.4-3.2,1.3c-1.1,1.1-1.6,2.8-1.6,4.3c0,1.7,0.6,3.1,1.5,4
				c0.9,1,2,1.4,3.4,1.4c0.8,0,1.8-0.1,2.7-0.9c0.4-0.4,1-1,1.1-2.1h-3.9L376.9,33.2L376.9,33.2z"/>
			<path class="st2" d="M390.7,38.1c1,1,2.6,1.9,4.2,1.9c1,0,1.5-0.3,1.9-0.6c0.3-0.3,0.5-0.7,0.5-1.2c0-0.4-0.1-0.8-0.5-1.1
				c-0.5-0.4-1.2-0.6-2.4-1l-1.2-0.4c-0.8-0.3-1.9-0.7-2.7-1.5c-0.9-1-1.1-2.4-1.1-3.3c0-2.3,0.9-3.7,1.7-4.5c0.9-1,2.5-1.8,4.7-1.8
				c1.8,0,4,0.6,5.7,1.5l-1.9,3.8c-1.4-1.1-2.5-1.3-3.2-1.3c-0.5,0-1.1,0.1-1.6,0.6c-0.3,0.3-0.5,0.6-0.5,1c0,0.3,0.1,0.6,0.2,0.8
				c0.1,0.2,0.5,0.5,1.6,0.8l1.5,0.4c1.2,0.4,2.4,0.8,3.3,1.8s1.2,2,1.2,3.3c0,1.7-0.4,3.4-1.7,4.7c-1.6,1.6-3.5,1.9-5.5,1.9
				c-1.2,0-2.3-0.1-3.6-0.6c-0.3-0.1-1.5-0.6-2.8-1.5L390.7,38.1z"/>
			<path class="st2" d="M406,43.4c-0.4-0.4-0.9-1-0.9-2s0.5-1.7,0.9-2c0.7-0.7,1.4-0.9,2-0.9c0.7,0,1.4,0.3,2,0.9
				c0.5,0.5,0.8,1.1,0.8,2s-0.3,1.5-0.8,2c-0.6,0.6-1.3,0.9-2,0.9C407.4,44.3,406.7,44.1,406,43.4z M405.7,37.4V25.1h4.6v12.3H405.7
				z"/>
		</g>
	</g>
</g>
</svg>
