<svg id="bcdadd7b-7fa5-436a-a55c-f926919ebf04" data-name="Layer 1" xmlns="http://www.w3.org/2000/svg" viewBox="0 0 424 55.52"><path d="M326,482.53H748v40H326Z" transform="translate(-324.97 -471.82)" style="fill:#f60;stroke:#f60;stroke-width:2px;fill-rule:evenodd"/><path d="M552.69,521a17.89,17.89,0,0,1-25.46,0c-4.15-4.13-6.84-10.85-6.84-19s2.69-15,6.84-19.11a17.89,17.89,0,0,1,25.46,0c4.15,4.13,6.85,10.85,6.85,19.11S556.84,516.9,552.69,521Zm-9.06-31.15a5.3,5.3,0,0,0-7.33,0c-2.49,2.17-4,7.84-4,12.18,0,3.71,1.32,9.8,4,12.18a5.3,5.3,0,0,0,7.33,0c2.56-2.24,4-8.12,4-12.11S546.05,492.05,543.63,489.88Zm-45.24,36.47c-8,0-12.59-3-15.15-5.67A15.35,15.35,0,0,1,479,509.76c0-6.37,3.18-12.53,6.85-17.43l10.3-13.72H509.8L496.66,494.5a16.09,16.09,0,0,1,6.43-1.47,14.92,14.92,0,0,1,10.45,4.48,15.12,15.12,0,0,1,4.36,11.13,16.48,16.48,0,0,1-4.78,12.18C508.56,525.44,502.82,526.35,498.39,526.35Zm5.12-22a7.49,7.49,0,0,0-5.33-2.17,8.07,8.07,0,0,0-5.19,2,6.9,6.9,0,0,0-2.28,4.83,7.79,7.79,0,0,0,2,5.32,7.48,7.48,0,0,0,5.46,2.38,7.32,7.32,0,0,0,5.33-2.17,7.57,7.57,0,0,0,2.14-5.32A6.7,6.7,0,0,0,503.51,504.37Zm-53.82,8.54a77.63,77.63,0,0,0,9.48-11.83,13.28,13.28,0,0,0,2.49-7.28,7.06,7.06,0,0,0-1.39-4.48,4.52,4.52,0,0,0-3.39-1.4,4.94,4.94,0,0,0-4,1.89,11.66,11.66,0,0,0-1.66,5.74H438.83A18.69,18.69,0,0,1,444,482.6c3.11-3.15,7.33-5,13.07-5,6.92,0,10.93,2.73,13,4.83a15.72,15.72,0,0,1,4.49,11.48c0,5.88-2.7,9.94-6.85,13.86L459.93,515H475V525.3H438Zm-22.16-25.6,2.1.74a11.26,11.26,0,0,1,4.68,2.57,6.43,6.43,0,0,1,2,5,8.66,8.66,0,0,1-2.25,6.16,10.62,10.62,0,0,1-4.85,2.66V509h-4v-4.41a12.78,12.78,0,0,1-4.56-1,16,16,0,0,1-3.91-2.33l2.9-5.47a12.69,12.69,0,0,0,2.79,2.09,9.4,9.4,0,0,0,3.67.94,3.62,3.62,0,0,0,2.62-.94,2.48,2.48,0,0,0,.73-1.72,1.94,1.94,0,0,0-.81-1.55,7.41,7.41,0,0,0-1.82-.82l-2.38-.81A10.68,10.68,0,0,1,420,490.5a6.32,6.32,0,0,1-1.74-4.74,8.33,8.33,0,0,1,2-5.75,8.9,8.9,0,0,1,4.92-2.7v-4.49h4v4.49a13.05,13.05,0,0,1,6.1,2.09l-2.67,5.22a7.61,7.61,0,0,0-4.51-1.76,3.57,3.57,0,0,0-2.42.74,1.75,1.75,0,0,0-.61,1.35,1.88,1.88,0,0,0,.56,1.34A6.28,6.28,0,0,0,427.53,487.31Z" transform="translate(-324.97 -471.82)" style="fill:#fff;stroke:#f60;stroke-width:2px;fill-rule:evenodd"/><path d="M727.68,493.6h4.59v12.32h-4.59ZM730,507a2.89,2.89,0,0,1,2,.9,2.68,2.68,0,0,1,.8,2,2.73,2.73,0,0,1-.83,2.05,2.84,2.84,0,0,1-2,.86,2.79,2.79,0,0,1-2-.86,2.86,2.86,0,0,1,0-4.09A2.81,2.81,0,0,1,730,507Zm-11.82-6.52,1.47.45a7,7,0,0,1,3.35,1.85,4.43,4.43,0,0,1,1.19,3.33,6.37,6.37,0,0,1-1.75,4.7,7.09,7.09,0,0,1-5.44,1.9,9.84,9.84,0,0,1-3.63-.61,13.24,13.24,0,0,1-2.79-1.49l2-3.92a6.47,6.47,0,0,0,4.24,1.91,2.39,2.39,0,0,0,1.85-.65,1.66,1.66,0,0,0,.47-1.17,1.45,1.45,0,0,0-.53-1.12,6.46,6.46,0,0,0-2.37-1l-1.25-.39a6.05,6.05,0,0,1-2.65-1.51,4.73,4.73,0,0,1-1.06-3.31A6.14,6.14,0,0,1,713,495a6.43,6.43,0,0,1,4.73-1.77,12.87,12.87,0,0,1,5.7,1.51l-1.91,3.78a4.88,4.88,0,0,0-3.15-1.26,2.33,2.33,0,0,0-1.58.56,1.38,1.38,0,0,0-.47,1,1.27,1.27,0,0,0,.25.84A3,3,0,0,0,718.18,500.46Zm-19.34,1.23h9.52c0,3.7-.75,6.33-3,8.4a9,9,0,0,1-6.5,2.35,9.29,9.29,0,0,1-9.74-9.52,10,10,0,0,1,14.91-8.48,9.09,9.09,0,0,1,3.29,3.84l-4.56,1.9a4.61,4.61,0,0,0-1.33-1.88,3.84,3.84,0,0,0-2.57-.92,4.43,4.43,0,0,0-3.16,1.29,6.38,6.38,0,0,0-1.6,4.28,5.86,5.86,0,0,0,1.47,4,4.33,4.33,0,0,0,3.37,1.43,3.93,3.93,0,0,0,2.66-.87,3.33,3.33,0,0,0,1.13-2.07h-3.93Zm-26.34-.84v11.42h-4.78V493.6h4.78L681.33,505V493.6h4.78v18.67h-4.78Zm-13.45-7.25h4.79v18.67h-4.79Zm-13.53,18.67-7.74-18.67H643L647.43,505l4.48-11.37h5.2l-7.85,18.67Zm-11.68,0-1.13-3.13H626l-1.24,3.13h-5.06l7.08-18.67H632L639,512.27Zm-4.48-12.87-2,6h4.1Zm-16.93,1.06,1.46.45a7,7,0,0,1,3.35,1.85,4.43,4.43,0,0,1,1.19,3.33,6.4,6.4,0,0,1-1.74,4.7,7.13,7.13,0,0,1-5.45,1.9,9.87,9.87,0,0,1-3.63-.61,13.24,13.24,0,0,1-2.79-1.49l2-3.92a6.42,6.42,0,0,0,4.23,1.91,2.38,2.38,0,0,0,1.85-.65,1.66,1.66,0,0,0,.47-1.17,1.47,1.47,0,0,0-.52-1.12,6.53,6.53,0,0,0-2.38-1l-1.25-.39a6.05,6.05,0,0,1-2.65-1.51,4.76,4.76,0,0,1-1-3.31,6.14,6.14,0,0,1,1.68-4.5,6.43,6.43,0,0,1,4.73-1.77,12.87,12.87,0,0,1,5.7,1.51l-1.91,3.78a4.85,4.85,0,0,0-3.15-1.26,2.33,2.33,0,0,0-1.58.56,1.42,1.42,0,0,0-.47,1,1.27,1.27,0,0,0,.25.84A3,3,0,0,0,612.43,500.46Zm-30.72.39v11.42h-4.78V493.6h4.78L590.54,505V493.6h4.78v18.67h-4.78Zm-13.44-7.25h4.78v18.67h-4.78ZM406.5,512.27l-4.59-7.16v7.16h-4.78V493.6h7.47a5.92,5.92,0,0,1,4.5,1.65,6.17,6.17,0,0,1,1.58,4.2,5.41,5.41,0,0,1-1.46,3.89,5.17,5.17,0,0,1-2.55,1.29l5.78,7.64Zm-1.38-14.19a3.2,3.2,0,0,0-2.29-.73h-.92V502h.92a3.57,3.57,0,0,0,2.32-.75,2.35,2.35,0,0,0,.61-1.57A2.2,2.2,0,0,0,405.12,498.08ZM383.6,493.6h10.48v4.12h-5.7v3.1h5.4v4.12h-5.4v3.22h5.7v4.11H383.6Zm-13.54,18.67-7.74-18.67h5.23L372,505l4.48-11.37h5.2l-7.85,18.67Zm-18.34.42a10.45,10.45,0,0,1-7.28-2.77,9.86,9.86,0,0,1,0-14A10.94,10.94,0,0,1,359,496a9.84,9.84,0,0,1,0,14A10.44,10.44,0,0,1,351.72,512.69Zm3.7-13.32a5.48,5.48,0,0,0-3.7-1.49,5.29,5.29,0,0,0-3.74,1.49,5.17,5.17,0,0,0-1.46,3.67,4.79,4.79,0,0,0,1.46,3.47,5.24,5.24,0,0,0,3.74,1.48,5,5,0,0,0,3.7-1.46,5.14,5.14,0,0,0,1.5-3.58A5.06,5.06,0,0,0,355.42,499.37Z" transform="translate(-324.97 -471.82)" style="fill:#fff;fill-rule:evenodd"/></svg>