<?xml version="1.0" encoding="UTF-8"?><svg id="Layer_1" xmlns="http://www.w3.org/2000/svg" viewBox="0 0 5211.192 2751.0099"><polygon points="5032.944 2751.0099 272.6592 2751.0099 121.69 1366.5493 5211.192 1366.5493 5032.944 2751.0099" style="opacity:.14;"/><polygon points="4984.5647 2702.6306 224.28 2702.6306 73.3107 1318.17 5162.8127 1318.17 4984.5647 2702.6306" style="fill:#c1d42f;"/><path d="M0,1245.4168l151.5586,1389.8323,.4724,4.3088H4920.9068l178.7955-1388.6842,.6992-5.4569H0Zm4912.4026,1384.4652H160.7053L10.7909,1255.0927H5089.4028l-177.0002,1374.7893Z"/><g><g style="opacity:.21;"><path d="M491.3864,2605.9174h328.7347c69.7826,0,106.6676-37.1263,106.6676-107.3651v-260.3357c0-38.7542-12.7766-70.4298-37.9746-94.1465l-324.9578-306.2503v-186.6991h184.4962v205.8947h178.4362v-251.8434c0-69.7826-36.885-106.6675-106.6676-106.6675H491.3864c-69.3263,0-105.97,37.3684-105.97,108.0663v242.8862c0,37.3402,12.7577,68.5273,37.9193,92.6946l325.0168,307.6915v203.4617h-184.4962v-222.6467h-178.4399v267.8942c0,70.2388,36.6437,107.3651,105.97,107.3651Z"/><polygon points="1433.6237 1498.5045 1426.0652 1498.5045 1426.0652 1506.0629 1426.0652 1948.6841 1219.9306 1948.6841 1219.9306 1506.0629 1219.9306 1498.5045 1212.3722 1498.5045 1049.0529 1498.5045 1041.4945 1498.5045 1041.4945 1506.0629 1041.4945 2598.3589 1041.4945 2605.9174 1049.0529 2605.9174 1212.3722 2605.9174 1219.9306 2605.9174 1219.9306 2598.3589 1219.9306 2115.956 1426.0652 2115.956 1426.0652 2598.3589 1426.0652 2605.9174 1433.6237 2605.9174 1598.338 2605.9174 1605.8965 2605.9174 1605.8965 2598.3589 1605.8965 1506.0629 1605.8965 1498.5045 1598.338 1498.5045 1433.6237 1498.5045"/><polygon points="1723.3887 1498.5045 1723.3887 1506.0629 1723.3887 2598.3589 1723.3887 2605.9174 1730.9472 2605.9174 1894.2664 2605.9174 1901.8249 2605.9174 1901.8249 2598.3589 1901.8249 1506.0629 1901.8249 1498.5045 1894.2664 1498.5045 1730.9472 1498.5045 1723.3887 1498.5045"/><path d="M2028.2781,1498.5045h-7.5585v1107.4129h178.4361v-395.7387h256.9661c70.2389,0,107.3651-37.8501,107.3651-109.4577v-494.1502c0-70.6979-37.1262-108.0663-107.3651-108.0663h-427.8437Zm355.3739,155.4064v400.8613h-184.4963v-400.8613h184.4963Z"/><path d="M2835.1086,2605.9174h7.5585v-395.7387h256.9624c70.2412,0,107.3688-37.8501,107.3688-109.4577v-494.1502c0-70.6979-37.1276-108.0663-107.3688-108.0663h-435.3986v1107.4129h170.8777Zm192.0584-952.0065v400.8613h-184.4999v-400.8613h184.4999Z"/><polygon points="3481.4138 2605.9174 3488.9723 2605.9174 3488.9723 2598.3589 3488.9723 1506.0629 3488.9723 1498.5045 3481.4138 1498.5045 3318.0946 1498.5045 3310.5361 1498.5045 3310.5361 1506.0629 3310.5361 2598.3589 3310.5361 2605.9174 3318.0946 2605.9174 3481.4138 2605.9174"/><path d="M3782.1069,2605.9174v-616.171c0-3.4853-.1144-7.2138-.3423-11.1776l236.9802,622.4792,1.8536,4.8694h155.8558V1498.5045h-174.251v602.2165c0,3.9402,.1458,8.1886,.436,12.7355l-237.0997-610.1316-1.8735-4.8204h-155.8101v1107.4129h174.251Z"/><path d="M4397.1263,2605.9174h343.3867c70.2411,0,107.3687-37.1263,107.3687-107.3651v-492.6371h-300.5823v154.0114h121.4449v290.5843h-197.7531v-796.6h197.7531v193.3317h179.1374v-240.6718c0-70.6979-37.1276-108.0663-107.3687-108.0663h-341.2978c-69.7826,0-106.6675,37.3684-106.6675,108.0663v891.9815c0,70.2388,36.1629,107.3651,104.5786,107.3651Z"/></g><g><path d="M452.683,2563.146h328.7347c69.7826,0,106.6675-37.1262,106.6675-107.365v-260.3357c0-38.7543-12.7766-70.4299-37.9746-94.1465l-324.9578-306.2503v-186.6991h184.4963v205.8947h178.4361v-251.8434c0-69.7826-36.8849-106.6676-106.6675-106.6676H452.683c-69.3264,0-105.97,37.3684-105.97,108.0663v242.8862c0,37.3403,12.7577,68.5273,37.9192,92.6947l325.0169,307.6915v203.4616h-184.4963v-222.6466h-178.4398v267.8942c0,70.2388,36.6436,107.365,105.97,107.365Z" style="fill:#fff;"/><polygon points="1394.9203 1455.7331 1387.3618 1455.7331 1387.3618 1463.2916 1387.3618 1905.9128 1181.2272 1905.9128 1181.2272 1463.2916 1181.2272 1455.7331 1173.6687 1455.7331 1010.3495 1455.7331 1002.791 1455.7331 1002.791 1463.2916 1002.791 2555.5875 1002.791 2563.146 1010.3495 2563.146 1173.6687 2563.146 1181.2272 2563.146 1181.2272 2555.5875 1181.2272 2073.1847 1387.3618 2073.1847 1387.3618 2555.5875 1387.3618 2563.146 1394.9203 2563.146 1559.6345 2563.146 1567.193 2563.146 1567.193 2555.5875 1567.193 1463.2916 1567.193 1455.7331 1559.6345 1455.7331 1394.9203 1455.7331" style="fill:#fff;"/><polygon points="1684.6853 1455.7331 1684.6853 1463.2916 1684.6853 2555.5875 1684.6853 2563.146 1692.2438 2563.146 1855.563 2563.146 1863.1214 2563.146 1863.1214 2555.5875 1863.1214 1463.2916 1863.1214 1455.7331 1855.563 1455.7331 1692.2438 1455.7331 1684.6853 1455.7331" style="fill:#fff;"/><path d="M1989.5746,1455.7331h-7.5585v1107.4129h178.4362v-395.7387h256.9661c70.2388,0,107.3651-37.85,107.3651-109.4577v-494.1502c0-70.6979-37.1263-108.0663-107.3651-108.0663h-427.8438Zm355.3739,155.4065v400.8613h-184.4962v-400.8613h184.4962Z" style="fill:#fff;"/><path d="M2796.4052,2563.146h7.5585v-395.7387h256.9624c70.2411,0,107.3687-37.85,107.3687-109.4577v-494.1502c0-70.6979-37.1276-108.0663-107.3687-108.0663h-435.3986v1107.4129h170.8777Zm192.0584-952.0064v400.8613h-184.4999v-400.8613h184.4999Z" style="fill:#fff;"/><polygon points="3442.7104 2563.146 3450.2688 2563.146 3450.2688 2555.5875 3450.2688 1463.2916 3450.2688 1455.7331 3442.7104 1455.7331 3279.3912 1455.7331 3271.8327 1455.7331 3271.8327 1463.2916 3271.8327 2555.5875 3271.8327 2563.146 3279.3912 2563.146 3442.7104 2563.146" style="fill:#fff;"/><path d="M3743.4034,2563.146v-616.1709c0-3.4854-.1144-7.2139-.3423-11.1776l236.9802,622.4792,1.8537,4.8693h155.8558V1455.7331h-174.251v602.2165c0,3.9403,.1458,8.1887,.436,12.7356l-237.0998-610.1316-1.8734-4.8205h-155.8101v1107.4129h174.2509Z" style="fill:#fff;"/><path d="M4358.4229,2563.146h343.3866c70.2412,0,107.3688-37.1262,107.3688-107.365v-492.6371h-300.5824v154.0114h121.445v290.5843h-197.7531v-796.6h197.7531v193.3316h179.1374v-240.6718c0-70.6979-37.1276-108.0663-107.3688-108.0663h-341.2977c-69.7826,0-106.6676,37.3684-106.6676,108.0663v891.9816c0,70.2388,36.163,107.365,104.5787,107.365Z" style="fill:#fff;"/></g></g><g><g style="opacity:.21;"><polygon points="1715.2246 1160.8771 1722.7831 1160.8771 1722.7831 1153.3186 1722.7831 677.8948 1956.7157 677.8948 1964.2742 677.8948 1964.2742 670.3363 1964.2742 528.6518 1964.2742 521.0933 1956.7157 521.0933 1722.7831 521.0933 1722.7831 213.0595 1997.8962 213.0595 2005.4546 213.0595 2005.4546 205.5011 2005.4546 61.0227 2005.4546 53.4642 1997.8962 53.4642 1551.9054 53.4642 1544.3469 53.4642 1544.3469 61.0227 1544.3469 1153.3186 1544.3469 1160.8771 1551.9054 1160.8771 1715.2246 1160.8771"/><path d="M2254.0429,1160.8771h7.5585V208.8706h190.7777v331.0672h-160.529v107.2715l.435,1.2262,180.0711,507.4108,1.7854,5.0308h186.4338l-3.6906-10.1433-176.3976-484.7524c49.3663-.448,81.5512-4.0602,98.2182-11.0038,34.1493-14.7792,51.4161-47.1699,51.4161-96.3133V161.5305c0-70.6974-36.6437-108.0663-105.97-108.0663h-440.9863V1160.8771h170.8777Z"/><polygon points="3202.5617 1160.8771 3210.1202 1160.8771 3210.1202 1153.3186 3210.1202 1008.8439 3210.1202 1001.2855 3202.5617 1001.2855 2920.4696 1001.2855 2920.4696 673.7059 3158.5912 673.7059 3166.1496 673.7059 3166.1496 666.1474 3166.1496 524.4629 3166.1496 516.9044 3158.5912 516.9044 2920.4696 516.9044 2920.4696 213.0595 3198.3728 213.0595 3205.9313 213.0595 3205.9313 205.5011 3205.9313 61.0227 3205.9313 53.4642 3198.3728 53.4642 2749.5919 53.4642 2742.0334 53.4642 2742.0334 61.0227 2742.0334 1153.3186 2742.0334 1160.8771 2749.5919 1160.8771 3202.5617 1160.8771"/><polygon points="3767.2036 1160.8771 3774.7621 1160.8771 3774.7621 1153.3186 3774.7621 1008.8439 3774.7621 1001.2855 3767.2036 1001.2855 3485.1115 1001.2855 3485.1115 673.7059 3723.233 673.7059 3730.7915 673.7059 3730.7915 666.1474 3730.7915 524.4629 3730.7915 516.9044 3723.233 516.9044 3485.1115 516.9044 3485.1115 213.0595 3763.0147 213.0595 3770.5732 213.0595 3770.5732 205.5011 3770.5732 61.0227 3770.5732 53.4642 3763.0147 53.4642 3314.2338 53.4642 3306.6753 53.4642 3306.6753 61.0227 3306.6753 1153.3186 3306.6753 1160.8771 3314.2338 1160.8771 3767.2036 1160.8771"/></g><g><polygon points="1666.8453 1107.4129 1674.4038 1107.4129 1674.4038 1099.8545 1674.4038 624.4307 1908.3364 624.4307 1915.8949 624.4307 1915.8949 616.8722 1915.8949 475.1876 1915.8949 467.6292 1908.3364 467.6292 1674.4038 467.6292 1674.4038 159.5954 1949.5169 159.5954 1957.0753 159.5954 1957.0753 152.0369 1957.0753 7.5585 1957.0753 0 1949.5169 0 1503.5261 0 1495.9676 0 1495.9676 7.5585 1495.9676 1099.8545 1495.9676 1107.4129 1503.5261 1107.4129 1666.8453 1107.4129"/><path d="M2205.6636,1107.4129h7.5585V155.4065h190.7777V486.4737h-160.529v107.2714l.435,1.2262,180.0711,507.4108,1.7854,5.0308h186.4338l-3.6906-10.1433-176.3976-484.7524c49.3663-.448,81.5512-4.0602,98.2183-11.0037,34.1492-14.7793,51.416-47.1699,51.416-96.3134V108.0663c0-70.6974-36.6437-108.0663-105.97-108.0663h-440.9863V1107.4129h170.8777Z"/><polygon points="3154.1824 1107.4129 3161.7409 1107.4129 3161.7409 1099.8545 3161.7409 955.3798 3161.7409 947.8213 3154.1824 947.8213 2872.0903 947.8213 2872.0903 620.2418 3110.2119 620.2418 3117.7703 620.2418 3117.7703 612.6833 3117.7703 470.9987 3117.7703 463.4403 3110.2119 463.4403 2872.0903 463.4403 2872.0903 159.5954 3149.9935 159.5954 3157.552 159.5954 3157.552 152.0369 3157.552 7.5585 3157.552 0 3149.9935 0 2701.2126 0 2693.6541 0 2693.6541 7.5585 2693.6541 1099.8545 2693.6541 1107.4129 2701.2126 1107.4129 3154.1824 1107.4129"/><polygon points="3718.8243 1107.4129 3726.3828 1107.4129 3726.3828 1099.8545 3726.3828 955.3798 3726.3828 947.8213 3718.8243 947.8213 3436.7322 947.8213 3436.7322 620.2418 3674.8537 620.2418 3682.4122 620.2418 3682.4122 612.6833 3682.4122 470.9987 3682.4122 463.4403 3674.8537 463.4403 3436.7322 463.4403 3436.7322 159.5954 3714.6354 159.5954 3722.1939 159.5954 3722.1939 152.0369 3722.1939 7.5585 3722.1939 0 3714.6354 0 3265.8545 0 3258.296 0 3258.296 7.5585 3258.296 1099.8545 3258.296 1107.4129 3265.8545 1107.4129 3718.8243 1107.4129"/></g></g></svg>