<?xml version="1.0" encoding="utf-8"?>
<!-- Generator: Adobe Illustrator 24.0.2, SVG Export Plug-In . SVG Version: 6.00 Build 0)  -->
<svg version="1.1" id="Layer_2" xmlns="http://www.w3.org/2000/svg" xmlns:xlink="http://www.w3.org/1999/xlink" x="0px" y="0px"
	 viewBox="0 0 44.4 46" style="enable-background:new 0 0 44.4 46;" xml:space="preserve">
<style type="text/css">
	.st0{fill:#F26722;stroke:#FFFFFF;stroke-miterlimit:10;}
</style>
<rect x="12.7" y="13.5" class="st0" width="19" height="19"/>
<g>
	<g>
		<polygon class="st0" points="12.1,2.3 4.8,2.3 1.8,2.3 1.8,5.3 1.8,12.6 4.8,12.6 4.8,5.3 12.1,5.3 		"/>
		<polygon class="st0" points="42.7,12.6 42.7,5.3 42.7,2.3 39.6,2.3 32.3,2.3 32.3,5.3 39.6,5.3 39.6,12.6 		"/>
	</g>
	<g>
		<polygon class="st0" points="32.3,43.8 39.6,43.8 42.7,43.8 42.7,40.7 42.7,33.4 39.6,33.4 39.6,40.7 32.3,40.7 		"/>
		<polygon class="st0" points="1.8,33.4 1.8,40.7 1.8,43.8 4.8,43.8 12.1,43.8 12.1,40.7 4.8,40.7 4.8,33.4 		"/>
	</g>
</g>
</svg>
