<?xml version="1.0" encoding="utf-8"?>
<!-- Generator: Adobe Illustrator 24.0.2, SVG Export Plug-In . SVG Version: 6.00 Build 0)  -->
<svg version="1.1" xmlns="http://www.w3.org/2000/svg" xmlns:xlink="http://www.w3.org/1999/xlink" x="0px" y="0px"
	 viewBox="0 0 175.1 86.9" style="enable-background:new 0 0 175.1 86.9;" xml:space="preserve">
<style type="text/css">
	.st0{fill:#707070;}
	.st1{font-family:'MyriadPro-Regular';}
	.st2{font-size:5.5973px;}
</style>
<g id="Layer_1">
	<text transform="matrix(1 0 0 1 170.588 55.5892)" class="st0 st1 st2">R</text>
	<path class="st0" d="M86.7,0C61.5,0,41,8.8,41,19.7c0,10.9,20.5,19.7,45.7,19.7s45.7-8.8,45.7-19.7C132.4,8.8,111.9,0,86.7,0
		 M78.7,4.1c-3.1,2-7.9,11.3,1.2,17.3c4,2.6,12.1,7.3,4.2,14.2C64.4,35,49,28.1,49,19.7C49,12.1,61.7,5.7,78.7,4.1 M94.7,35.3
		c3.1-2,7.9-11.3-1.2-17.3c-4-2.6-12.1-7.3-4.2-14.2c19.6,0.6,35,7.5,35,15.9C124.4,27.3,111.7,33.7,94.7,35.3"/>
	<path class="st0" d="M0.2,76.8C2.4,78.2,6,80,11.6,80c7.5,0,13-3.4,14-8.6c1.1-6.2-4.6-8.1-9.7-9.8l-0.2-0.1
		c-2.7-0.9-3.3-1.3-3.2-2c0.1-0.6,0.6-1.3,3.1-1.3c2.8,0,5.4,0.6,8.7,2c0.1,0.1,0.3,0,0.4,0c0.1-0.1,0.2-0.2,0.2-0.3l1.2-6.4
		c0-0.2-0.1-0.4-0.3-0.5c-2.2-0.9-5.2-1.9-9.1-1.9c-7,0-12.4,3.3-13.4,8.3c-1.2,6.1,4.2,7.7,9.3,9.3c3.2,0.9,3.9,1.4,3.7,2.5
		C16.2,72.4,15,73,12.7,73c-2.2,0-7-1.3-10.7-4.1c-0.1-0.1-0.3-0.1-0.4-0.1c-0.1,0.1-0.3,0.2-0.3,0.3L0,76.3
		C0,76.5,0.1,76.7,0.2,76.8"/>
	<path class="st0" d="M40.5,80c7.7,0,13.4-3.6,14.4-9.2l3.5-18.7c0-0.1,0-0.3-0.1-0.4c-0.1-0.1-0.2-0.2-0.3-0.2h-7.7
		c-0.2,0-0.4,0.2-0.4,0.4l-3.2,17.5c-0.4,2.1-2.3,3.3-5,3.3c-1.5,0-2.6-0.4-3.1-1c-0.4-0.5-0.6-1.2-0.4-2.1l3.2-17.5
		c0-0.1,0-0.3-0.1-0.4c-0.1-0.1-0.2-0.2-0.3-0.2h-7.7c-0.2,0-0.4,0.2-0.4,0.4l-3.5,18.7c-0.4,2.3,0,4.3,1.4,5.9
		C32.5,78.8,36,80,40.5,80"/>
	<path class="st0" d="M150.9,80c4.1,0,7-0.3,9.3-0.5c0.7-0.1,1.3-0.1,1.9-0.2c0.2,0,0.4-0.2,0.4-0.4l1.1-6.1c0-0.1,0-0.3-0.1-0.4
		c-0.1-0.1-0.2-0.2-0.4-0.1c-3.2,0.4-6.3,0.7-11.2,0.7c-1.8,0-3-0.3-3.5-0.9c-0.3-0.3-0.3-0.7-0.2-1.3c0.3-1.5,1.9-2.3,4.7-2.3h9.1
		c0.2,0,0.4-0.2,0.4-0.4l1.1-6.1c0-0.1,0-0.3-0.1-0.4c-0.1-0.1-0.2-0.2-0.3-0.2h-9c-1.9,0-2.6-0.4-2.9-0.7c-0.2-0.2-0.3-0.5-0.2-0.9
		c0.2-1.1,1.5-1.7,3.9-1.7c3.7,0,6,0.2,8.8,0.5l1.3,0.1c0.2,0,0.4-0.1,0.5-0.4l1.1-6.1c0-0.1,0-0.2-0.1-0.3
		c-0.1-0.1-0.2-0.2-0.3-0.2l-0.2,0c-3.4-0.4-5.6-0.6-10-0.6c-7.4,0-12.4,2.9-13.4,7.8c-0.5,2.4,0.3,4.5,2.1,5.8
		c-2.8,1.3-4.8,3.8-5.3,6.5c-0.4,2,0.1,3.9,1.3,5.3C142.7,78.9,146.2,80,150.9,80"/>
	<path class="st0" d="M87,80.8l-1,5.5c0,0.1,0,0.3,0.1,0.4c0.1,0.1,0.2,0.2,0.3,0.2c0.5,0,1,0,1.4,0c9.3,0,13.6-3.6,15.3-12.8
		l4.1-21.9c0-0.1,0-0.3-0.1-0.4c-0.1-0.1-0.2-0.2-0.3-0.2h-7.7c-0.2,0-0.4,0.2-0.4,0.4l-4.1,22.2c-1,5.3-3,6.2-7.1,6.2
		C87.2,80.5,87,80.6,87,80.8"/>
	<path class="st0" d="M118.3,65.7c1.1-5.5,3.1-7.7,6.8-7.7c1.5,0,2.5,0.4,3.1,1.1c0.9,1.1,1,3.1,0.3,6.4c-1.1,5.5-3.1,7.8-6.8,7.8
		c-1.5,0-2.5-0.4-3.1-1.1C117.7,71.1,117.6,69.1,118.3,65.7 M120.9,80.1c9.1,0,14.4-4.7,16.2-14.3c0.9-4.9,0.4-8.7-1.6-11.1
		c-1.9-2.3-5.1-3.4-9.5-3.4c-9.1,0-14.6,4.8-16.3,14.3c-0.9,4.9-0.3,8.7,1.7,11.1C113.3,78.9,116.5,80.1,120.9,80.1"/>
	<path class="st0" d="M60.1,79.6h7.1c0.2,0,0.4-0.2,0.4-0.4l2.6-14.1L78,79.4c0.1,0.1,0.2,0.2,0.4,0.2h6.7c0.2,0,0.4-0.2,0.4-0.4
		l5-27c0-0.1,0-0.3-0.1-0.4c-0.1-0.1-0.2-0.2-0.3-0.2H83c-0.2,0-0.4,0.2-0.4,0.4l-2.6,14.2l-7.7-14.3c-0.1-0.1-0.2-0.2-0.4-0.2h-6.7
		c-0.2,0-0.4,0.2-0.4,0.4l-5,27c0,0.1,0,0.3,0.1,0.4C59.8,79.5,60,79.6,60.1,79.6"/>
	<path class="st0" d="M169.6,53.8c0-1.4,1.2-2.6,2.6-2.6c1.4,0,2.6,1.2,2.6,2.6c0,1.4-1.2,2.6-2.6,2.6
		C170.7,56.4,169.6,55.2,169.6,53.8 M169.2,53.8c0,1.6,1.3,2.9,2.9,2.9c1.6,0,2.9-1.3,2.9-2.9c0-1.6-1.3-2.9-2.9-2.9
		C170.5,50.9,169.2,52.2,169.2,53.8"/>
	<path class="st0" d="M86.7,0C61.5,0,41,8.8,41,19.7c0,10.9,20.5,19.7,45.7,19.7s45.7-8.8,45.7-19.7C132.4,8.8,111.9,0,86.7,0
		 M78.7,4.1c-3.1,2-7.9,11.3,1.2,17.3c4,2.6,12.1,7.3,4.2,14.2C64.4,35,49,28.1,49,19.7C49,12.1,61.7,5.7,78.7,4.1 M94.7,35.3
		c3.1-2,7.9-11.3-1.2-17.3c-4-2.6-12.1-7.3-4.2-14.2c19.6,0.6,35,7.5,35,15.9C124.4,27.3,111.7,33.7,94.7,35.3"/>
</g>
<g id="Layer_2">
</g>
</svg>
