<?xml version="1.0" encoding="utf-8"?>
<!-- Generator: Adobe Illustrator 21.1.0, SVG Export Plug-In . SVG Version: 6.00 Build 0)  -->
<svg version="1.1" id="Layer_1" xmlns="http://www.w3.org/2000/svg" xmlns:xlink="http://www.w3.org/1999/xlink" x="0px" y="0px"
	 viewBox="0 0 251.1 41" style="enable-background:new 0 0 251.1 41;" xml:space="preserve">
<style type="text/css">
	.st0{fill:url(#SVGID_1_);}
	.st1{fill:#ff6600;}
	.st2{fill:url(#SVGID_2_);}
	.st3{fill:url(#SVGID_3_);}
	.st4{fill:url(#SVGID_4_);}
	.st5{fill:url(#SVGID_5_);}
</style>
<g>
	<linearGradient id="SVGID_1_" gradientUnits="userSpaceOnUse" x1="21.5438" y1="53.2594" x2="21.5438" y2="-13.8418">
		<stop  offset="0" style="stop-color:#ffae00"/>
		<stop  offset="1" style="stop-color:#ffdf47"/>
	</linearGradient>
	<path class="st0" d="M33.3,40c-0.5,0-1-0.2-1.7-0.7l-7.5-5.4c-0.7-0.5-1.6-0.8-2.6-0.8s-1.9,0.3-2.6,0.8l-7.5,5.4
		c-0.6,0.5-1.2,0.7-1.7,0.7c-0.4,0-0.7-0.2-0.9-0.4c-0.3-0.4-0.3-1.2,0-2.1l2.9-8.8c0.5-1.7-0.2-3.9-1.6-5l-7.5-5.4
		c-1.2-0.9-1.3-1.6-1.2-2.1c0.1-0.4,0.6-1,2.2-1h9.3c1.8,0,3.7-1.4,4.2-3.1L20,3.3c0.5-1.5,1.1-1.8,1.6-1.8s1.1,0.3,1.6,1.8l2.9,8.8
		c0.5,1.7,2.5,3.1,4.2,3.1h9.3c1.5,0,2,0.5,2.2,1c0.1,0.4,0.1,1.2-1.2,2.1L33,23.6c-1.4,1-2.2,3.3-1.6,5l2.9,8.8
		c0.3,1,0.3,1.7,0,2.1C34,39.8,33.7,40,33.3,40z"/>
	<path class="st1" d="M21.5,2c0.4,0,0.8,0.5,1.1,1.4l2.9,8.8c0.6,1.9,2.7,3.4,4.7,3.4h9.3c2,0,2.3,1,0.7,2.1l-7.5,5.4
		c-1.6,1.2-2.4,3.7-1.8,5.5l2.9,8.8c0.4,1.2,0.2,1.9-0.4,1.9c-0.3,0-0.8-0.2-1.4-0.6l-7.5-5.4c-0.8-0.6-1.9-0.9-2.9-0.9
		s-2.1,0.3-2.9,0.9l-7.5,5.4c-0.6,0.4-1,0.6-1.4,0.6c-0.6,0-0.8-0.7-0.4-1.9l2.9-8.8c0.6-1.9-0.2-4.4-1.8-5.5l-7.5-5.4
		c-1.6-1.2-1.3-2.1,0.7-2.1h9.3c2,0,4.1-1.5,4.7-3.4l2.9-8.8C20.7,2.5,21.1,2,21.5,2 M21.5,1c-0.6,0-1.5,0.4-2.1,2.1l-2.9,8.8
		c-0.5,1.5-2.2,2.7-3.8,2.7H3.6c-1.8,0-2.4,0.7-2.6,1.3c-0.2,0.6-0.1,1.5,1.4,2.6L9.8,24c1.3,0.9,1.9,2.9,1.4,4.4l-2.9,8.8
		c-0.4,1.1-0.3,2,0.1,2.6c0.3,0.4,0.8,0.6,1.3,0.6c0.6,0,1.2-0.3,1.9-0.8l7.5-5.4c0.6-0.4,1.4-0.7,2.3-0.7c0.9,0,1.7,0.2,2.3,0.7
		l7.5,5.4c0.7,0.5,1.4,0.8,1.9,0.8c0.5,0,1-0.2,1.3-0.6c0.4-0.6,0.5-1.5,0.1-2.6l-2.9-8.8C31.4,27,32,24.9,33.3,24l7.5-5.4
		c1.5-1.1,1.6-2,1.4-2.6c-0.2-0.6-0.8-1.3-2.6-1.3h-9.3c-1.6,0-3.3-1.3-3.8-2.7l-2.9-8.8C23,1.4,22.2,1,21.5,1L21.5,1z"/>
</g>
<g>
	<linearGradient id="SVGID_2_" gradientUnits="userSpaceOnUse" x1="73.5438" y1="53.2594" x2="73.5438" y2="-13.8418">
		<stop  offset="0" style="stop-color:#ffae00"/>
		<stop  offset="1" style="stop-color:#ffdf47"/>
	</linearGradient>
	<path class="st2" d="M85.3,40c-0.5,0-1-0.2-1.7-0.7l-7.5-5.4c-0.7-0.5-1.6-0.8-2.6-0.8s-1.9,0.3-2.6,0.8l-7.5,5.4
		c-0.6,0.5-1.2,0.7-1.7,0.7c-0.4,0-0.7-0.2-0.9-0.4c-0.3-0.4-0.3-1.2,0-2.1l2.9-8.8c0.5-1.7-0.2-3.9-1.6-5l-7.5-5.4
		c-1.2-0.9-1.3-1.6-1.2-2.1c0.1-0.4,0.6-1,2.2-1h9.3c1.8,0,3.7-1.4,4.2-3.1L72,3.3c0.5-1.5,1.1-1.8,1.6-1.8s1.1,0.3,1.6,1.8l2.9,8.8
		c0.5,1.7,2.5,3.1,4.2,3.1h9.3c1.5,0,2,0.5,2.2,1c0.1,0.4,0.1,1.2-1.2,2.1L85,23.6c-1.4,1-2.2,3.3-1.6,5l2.9,8.8
		c0.3,1,0.3,1.7,0,2.1C86,39.8,85.7,40,85.3,40z"/>
	<path class="st1" d="M73.5,2c0.4,0,0.8,0.5,1.1,1.4l2.9,8.8c0.6,1.9,2.7,3.4,4.7,3.4h9.3c2,0,2.3,1,0.7,2.1l-7.5,5.4
		c-1.6,1.2-2.4,3.7-1.8,5.5l2.9,8.8c0.4,1.2,0.2,1.9-0.4,1.9c-0.3,0-0.8-0.2-1.4-0.6l-7.5-5.4c-0.8-0.6-1.9-0.9-2.9-0.9
		s-2.1,0.3-2.9,0.9l-7.5,5.4c-0.6,0.4-1,0.6-1.4,0.6c-0.6,0-0.8-0.7-0.4-1.9l2.9-8.8c0.6-1.9-0.2-4.4-1.8-5.5l-7.5-5.4
		c-1.6-1.2-1.3-2.1,0.7-2.1h9.3c2,0,4.1-1.5,4.7-3.4l2.9-8.8C72.7,2.5,73.1,2,73.5,2 M73.5,1c-0.6,0-1.5,0.4-2.1,2.1l-2.9,8.8
		c-0.5,1.5-2.2,2.7-3.8,2.7h-9.3c-1.8,0-2.4,0.7-2.6,1.3c-0.2,0.6-0.1,1.5,1.4,2.6l7.5,5.4c1.3,0.9,1.9,2.9,1.4,4.4l-2.9,8.8
		c-0.4,1.1-0.3,2,0.1,2.6c0.3,0.4,0.8,0.6,1.3,0.6c0.6,0,1.2-0.3,1.9-0.8l7.5-5.4c0.6-0.4,1.4-0.7,2.3-0.7c0.9,0,1.7,0.2,2.3,0.7
		l7.5,5.4c0.7,0.5,1.4,0.8,1.9,0.8c0.5,0,1-0.2,1.3-0.6c0.4-0.6,0.5-1.5,0.1-2.6l-2.9-8.8C83.4,27,84,24.9,85.3,24l7.5-5.4
		c1.5-1.1,1.6-2,1.4-2.6c-0.2-0.6-0.8-1.3-2.6-1.3h-9.3c-1.6,0-3.3-1.3-3.8-2.7l-2.9-8.8C75,1.4,74.2,1,73.5,1L73.5,1z"/>
</g>
<g>
	<linearGradient id="SVGID_3_" gradientUnits="userSpaceOnUse" x1="125.5438" y1="53.2594" x2="125.5438" y2="-13.8418">
		<stop  offset="0" style="stop-color:#ffae00"/>
		<stop  offset="1" style="stop-color:#ffdf47"/>
	</linearGradient>
	<path class="st3" d="M137.3,40c-0.5,0-1-0.2-1.7-0.7l-7.5-5.4c-0.7-0.5-1.6-0.8-2.6-0.8s-1.9,0.3-2.6,0.8l-7.5,5.4
		c-0.6,0.5-1.2,0.7-1.7,0.7c-0.4,0-0.7-0.2-0.9-0.4c-0.3-0.4-0.3-1.2,0-2.1l2.9-8.8c0.5-1.7-0.2-3.9-1.6-5l-7.5-5.4
		c-1.2-0.9-1.3-1.6-1.2-2.1c0.1-0.4,0.6-1,2.2-1h9.3c1.8,0,3.7-1.4,4.2-3.1l2.9-8.8c0.5-1.5,1.1-1.8,1.6-1.8s1.1,0.3,1.6,1.8
		l2.9,8.8c0.5,1.7,2.5,3.1,4.2,3.1h9.3c1.5,0,2,0.5,2.2,1c0.1,0.4,0.1,1.2-1.2,2.1l-7.5,5.4c-1.4,1-2.2,3.3-1.6,5l2.9,8.8
		c0.3,1,0.3,1.7,0,2.1C138,39.8,137.7,40,137.3,40z"/>
	<path class="st1" d="M125.5,2c0.4,0,0.8,0.5,1.1,1.4l2.9,8.8c0.6,1.9,2.7,3.4,4.7,3.4h9.3c2,0,2.3,1,0.7,2.1l-7.5,5.4
		c-1.6,1.2-2.4,3.7-1.8,5.5l2.9,8.8c0.4,1.2,0.2,1.9-0.4,1.9c-0.3,0-0.8-0.2-1.4-0.6l-7.5-5.4c-0.8-0.6-1.9-0.9-2.9-0.9
		s-2.1,0.3-2.9,0.9l-7.5,5.4c-0.6,0.4-1,0.6-1.4,0.6c-0.6,0-0.8-0.7-0.4-1.9l2.9-8.8c0.6-1.9-0.2-4.4-1.8-5.5l-7.5-5.4
		c-1.6-1.2-1.3-2.1,0.7-2.1h9.3c2,0,4.1-1.5,4.7-3.4l2.9-8.8C124.7,2.5,125.1,2,125.5,2 M125.5,1c-0.6,0-1.5,0.4-2.1,2.1l-2.9,8.8
		c-0.5,1.5-2.2,2.7-3.8,2.7h-9.3c-1.8,0-2.4,0.7-2.6,1.3c-0.2,0.6-0.1,1.5,1.4,2.6l7.5,5.4c1.3,0.9,1.9,2.9,1.4,4.4l-2.9,8.8
		c-0.4,1.1-0.3,2,0.1,2.6c0.3,0.4,0.8,0.6,1.3,0.6c0.6,0,1.2-0.3,1.9-0.8l7.5-5.4c0.6-0.4,1.4-0.7,2.3-0.7s1.7,0.2,2.3,0.7l7.5,5.4
		c0.7,0.5,1.4,0.8,1.9,0.8c0.5,0,1-0.2,1.3-0.6c0.4-0.6,0.5-1.5,0.1-2.6l-2.9-8.8c-0.5-1.5,0.2-3.5,1.4-4.4l7.5-5.4
		c1.5-1.1,1.6-2,1.4-2.6c-0.2-0.6-0.8-1.3-2.6-1.3h-9.3c-1.6,0-3.3-1.3-3.8-2.7l-2.9-8.8C127,1.4,126.2,1,125.5,1L125.5,1z"/>
</g>
<g>
	<linearGradient id="SVGID_4_" gradientUnits="userSpaceOnUse" x1="177.5438" y1="53.2594" x2="177.5438" y2="-13.8418">
		<stop  offset="0" style="stop-color:#ffae00"/>
		<stop  offset="1" style="stop-color:#ffdf47"/>
	</linearGradient>
	<path class="st4" d="M189.3,40c-0.5,0-1-0.2-1.7-0.7l-7.5-5.4c-0.7-0.5-1.6-0.8-2.6-0.8s-1.9,0.3-2.6,0.8l-7.5,5.4
		c-0.6,0.5-1.2,0.7-1.7,0.7c-0.4,0-0.7-0.2-0.9-0.4c-0.3-0.4-0.3-1.2,0-2.1l2.9-8.8c0.5-1.7-0.2-3.9-1.6-5l-7.5-5.4
		c-1.2-0.9-1.3-1.6-1.2-2.1c0.1-0.4,0.6-1,2.2-1h9.3c1.8,0,3.7-1.4,4.2-3.1l2.9-8.8c0.5-1.5,1.1-1.8,1.6-1.8s1.1,0.3,1.6,1.8
		l2.9,8.8c0.5,1.7,2.5,3.1,4.2,3.1h9.3c1.5,0,2,0.5,2.2,1c0.1,0.4,0.1,1.2-1.2,2.1l-7.5,5.4c-1.4,1-2.2,3.3-1.6,5l2.9,8.8
		c0.3,1,0.3,1.7,0,2.1C190,39.8,189.7,40,189.3,40z"/>
	<path class="st1" d="M177.5,2c0.4,0,0.8,0.5,1.1,1.4l2.9,8.8c0.6,1.9,2.7,3.4,4.7,3.4h9.3c2,0,2.3,1,0.7,2.1l-7.5,5.4
		c-1.6,1.2-2.4,3.7-1.8,5.5l2.9,8.8c0.4,1.2,0.2,1.9-0.4,1.9c-0.3,0-0.8-0.2-1.4-0.6l-7.5-5.4c-0.8-0.6-1.9-0.9-2.9-0.9
		s-2.1,0.3-2.9,0.9l-7.5,5.4c-0.6,0.4-1,0.6-1.4,0.6c-0.6,0-0.8-0.7-0.4-1.9l2.9-8.8c0.6-1.9-0.2-4.4-1.8-5.5l-7.5-5.4
		c-1.6-1.2-1.3-2.1,0.7-2.1h9.3c2,0,4.1-1.5,4.7-3.4l2.9-8.8C176.7,2.5,177.1,2,177.5,2 M177.5,1c-0.6,0-1.5,0.4-2.1,2.1l-2.9,8.8
		c-0.5,1.5-2.2,2.7-3.8,2.7h-9.3c-1.8,0-2.4,0.7-2.6,1.3c-0.2,0.6-0.1,1.5,1.4,2.6l7.5,5.4c1.3,0.9,1.9,2.9,1.4,4.4l-2.9,8.8
		c-0.4,1.1-0.3,2,0.1,2.6c0.3,0.4,0.8,0.6,1.3,0.6c0.6,0,1.2-0.3,1.9-0.8l7.5-5.4c0.6-0.4,1.4-0.7,2.3-0.7s1.7,0.2,2.3,0.7l7.5,5.4
		c0.7,0.5,1.4,0.8,1.9,0.8c0.5,0,1-0.2,1.3-0.6c0.4-0.6,0.5-1.5,0.1-2.6l-2.9-8.8c-0.5-1.5,0.2-3.5,1.4-4.4l7.5-5.4
		c1.5-1.1,1.6-2,1.4-2.6c-0.2-0.6-0.8-1.3-2.6-1.3h-9.3c-1.6,0-3.3-1.3-3.8-2.7l-2.9-8.8C179,1.4,178.2,1,177.5,1L177.5,1z"/>
</g>
<g>
	<linearGradient id="SVGID_5_" gradientUnits="userSpaceOnUse" x1="229.5438" y1="53.2594" x2="229.5438" y2="-13.8418">
		<stop  offset="0" style="stop-color:#ffae00"/>
		<stop  offset="1" style="stop-color:#ffdf47"/>
	</linearGradient>
	<path class="st5" d="M241.3,40c-0.5,0-1-0.2-1.7-0.7l-7.5-5.4c-0.7-0.5-1.6-0.8-2.6-0.8s-1.9,0.3-2.6,0.8l-7.5,5.4
		c-0.6,0.5-1.2,0.7-1.7,0.7c-0.4,0-0.7-0.2-0.9-0.4c-0.3-0.4-0.3-1.2,0-2.1l2.9-8.8c0.5-1.7-0.2-3.9-1.6-5l-7.5-5.4
		c-1.2-0.9-1.3-1.6-1.2-2.1c0.1-0.4,0.6-1,2.2-1h9.3c1.8,0,3.7-1.4,4.2-3.1l2.9-8.8c0.5-1.5,1.1-1.8,1.6-1.8s1.1,0.3,1.6,1.8
		l2.9,8.8c0.5,1.7,2.5,3.1,4.2,3.1h9.3c1.5,0,2,0.5,2.2,1c0.1,0.4,0.1,1.2-1.2,2.1l-7.5,5.4c-1.4,1-2.2,3.3-1.6,5l2.9,8.8
		c0.3,1,0.3,1.7,0,2.1C242,39.8,241.7,40,241.3,40z"/>
	<path class="st1" d="M229.5,2c0.4,0,0.8,0.5,1.1,1.4l2.9,8.8c0.6,1.9,2.7,3.4,4.7,3.4h9.3c2,0,2.3,1,0.7,2.1l-7.5,5.4
		c-1.6,1.2-2.4,3.7-1.8,5.5l2.9,8.8c0.4,1.2,0.2,1.9-0.4,1.9c-0.3,0-0.8-0.2-1.4-0.6l-7.5-5.4c-0.8-0.6-1.9-0.9-2.9-0.9
		s-2.1,0.3-2.9,0.9l-7.5,5.4c-0.6,0.4-1,0.6-1.4,0.6c-0.6,0-0.8-0.7-0.4-1.9l2.9-8.8c0.6-1.9-0.2-4.4-1.8-5.5l-7.5-5.4
		c-1.6-1.2-1.3-2.1,0.7-2.1h9.3c2,0,4.1-1.5,4.7-3.4l2.9-8.8C228.7,2.5,229.1,2,229.5,2 M229.5,1c-0.6,0-1.5,0.4-2.1,2.1l-2.9,8.8
		c-0.5,1.5-2.2,2.7-3.8,2.7h-9.3c-1.8,0-2.4,0.7-2.6,1.3c-0.2,0.6-0.1,1.5,1.4,2.6l7.5,5.4c1.3,0.9,1.9,2.9,1.4,4.4l-2.9,8.8
		c-0.4,1.1-0.3,2,0.1,2.6c0.3,0.4,0.8,0.6,1.3,0.6c0.6,0,1.2-0.3,1.9-0.8l7.5-5.4c0.6-0.4,1.4-0.7,2.3-0.7s1.7,0.2,2.3,0.7l7.5,5.4
		c0.7,0.5,1.4,0.8,1.9,0.8c0.5,0,1-0.2,1.3-0.6c0.4-0.6,0.5-1.5,0.1-2.6l-2.9-8.8c-0.5-1.5,0.2-3.5,1.4-4.4l7.5-5.4
		c1.5-1.1,1.6-2,1.4-2.6c-0.2-0.6-0.8-1.3-2.6-1.3h-9.3c-1.6,0-3.3-1.3-3.8-2.7l-2.9-8.8C231,1.4,230.2,1,229.5,1L229.5,1z"/>
</g>
</svg>
