<?xml version="1.0" encoding="UTF-8"?><svg id="Underlines" xmlns="http://www.w3.org/2000/svg" viewBox="0 0 224.3899 12.9529"><path fill="#333333" id="_" d="M223.2274,11.2722c-2.6536-.2015-44.0349-2.5693-72.5994-2.3648-4.3261,.0309-53.1021-.4962-122.6066,4.0455,27.3741-3.605,45.9092-5.2255,49.9656-5.887-1.6406-.024-72.5883,1.7974-73.5468,1.8282-1.0435,.0336-1.8813-.3711-2.5427-1.1254C1.2621,7.0439-.0731,4.906,.0031,3.5905c.0381-.5299,.1896-.8547,.7444-.8927,.8875-.0607,1.7747-.1403,2.6633-.1653C87.5584-1.0471,118.4431,.221,121.5542,.2063c28.055-.1326,69.6647,2.2933,73.2778,2.61,9.0168,.7616,24.0573-.0492,25.6418,.1054,1.0497,.1023,3.3023,.6215,3.731,3.319,.5502,3.4622-.231,5.0872-.9774,5.0315Z"/></svg>